<?xml version="1.0" standalone="no"?>
<!DOCTYPE svg PUBLIC "-//W3C//DTD SVG 20010904//EN"
 "http://www.w3.org/TR/2001/REC-SVG-20010904/DTD/svg10.dtd">
<svg version="1.0" xmlns="http://www.w3.org/2000/svg"
 width="300.000000pt" height="300.000000pt" viewBox="0 0 300.000000 300.000000"
 preserveAspectRatio="xMidYMid meet">
<metadata>
Created by potrace 1.14, written by Peter Selinger 2001-2017
</metadata>
<g transform="translate(0.000000,300.000000) scale(0.100000,-0.100000)"
fill="#000000" stroke="none">
<path d="M1336 2928 c4 -13 2 -18 -4 -14 -6 3 -13 2 -17 -3 -3 -6 3 -8 14 -6
14 3 19 -2 18 -16 -1 -12 -5 -15 -11 -9 -13 13 -26 13 -26 -1 0 -5 5 -7 10 -4
6 3 10 1 10 -6 0 -6 -8 -9 -19 -6 -13 3 -18 0 -15 -7 3 -7 -5 -21 -17 -32 -13
-10 -19 -13 -14 -5 6 11 4 13 -8 8 -12 -4 -15 -1 -12 14 2 11 0 17 -6 14 -5
-4 -7 -10 -4 -14 2 -5 -2 -17 -10 -27 -17 -23 -19 -34 -4 -34 5 0 7 5 3 12 -5
7 -3 8 6 3 9 -5 11 -4 6 3 -4 7 -2 12 3 12 14 0 14 -17 1 -25 -6 -4 -7 -11 -4
-17 5 -7 2 -8 -6 -3 -10 6 -12 4 -7 -7 4 -12 1 -14 -15 -10 -15 4 -17 7 -6 13
8 5 9 9 2 9 -6 0 -18 -8 -25 -17 -10 -11 -10 -14 -1 -9 7 4 12 2 12 -4 0 -6 4
-9 9 -5 5 3 12 1 15 -3 3 -5 -6 -8 -20 -8 -14 1 -29 8 -34 16 -13 20 -13 4 0
-19 8 -16 6 -18 -19 -16 -22 2 -28 -2 -26 -14 2 -9 4 -18 4 -21 1 -3 6 2 12
10 9 13 10 13 6 0 -2 -8 -12 -13 -22 -12 -16 3 -17 1 -6 -11 8 -11 9 -17 1
-22 -6 -3 -8 -10 -5 -15 3 -5 -4 -7 -15 -5 -11 2 -20 0 -20 -4 0 -4 -7 -8 -16
-8 -15 0 -14 2 1 13 10 8 23 10 29 7 6 -4 5 1 -3 10 -15 19 -26 23 -16 7 4 -7
-3 -9 -22 -5 -19 4 -22 3 -9 -3 17 -7 16 -10 -9 -26 -27 -18 -28 -18 -21 0 6
15 4 16 -5 7 -9 -9 -8 -16 3 -32 8 -12 18 -19 21 -16 4 3 4 2 1 -2 -3 -5 -10
-9 -15 -9 -5 -1 -13 -2 -19 -3 -5 0 -10 -6 -10 -12 0 -5 4 -8 8 -5 4 2 14 0
22 -5 12 -8 11 -9 -5 -7 -11 2 -20 -3 -20 -9 0 -7 -3 -13 -7 -13 -5 0 -15 0
-24 0 -8 0 -12 5 -8 11 5 8 1 8 -13 0 -11 -6 -24 -7 -28 -3 -5 4 -5 2 -1 -5 8
-14 -28 -76 -38 -66 -4 4 -4 -1 0 -12 4 -11 12 -24 18 -28 7 -5 6 -7 -4 -6
-32 3 -49 -2 -46 -13 1 -7 1 -10 -1 -5 -3 4 -10 4 -16 1 -8 -5 -8 -2 1 7 15
16 16 29 1 29 -5 0 -7 -4 -4 -10 3 -5 -1 -10 -9 -10 -8 0 -18 -5 -22 -12 -4
-7 -3 -8 4 -4 17 10 15 -19 -1 -33 -9 -7 -17 -7 -24 0 -6 6 -10 5 -10 -5 0 -8
4 -13 8 -11 4 3 9 -2 12 -9 7 -17 -16 -39 -28 -28 -5 4 -6 0 -3 -8 4 -10 0
-16 -11 -16 -10 0 -18 6 -18 13 0 7 4 13 9 13 4 0 8 5 8 10 0 38 -42 -29 -44
-70 -1 -8 -8 -16 -16 -16 -8 -1 -19 -2 -24 -3 -6 0 -5 -6 1 -12 13 -13 6 -39
-9 -39 -6 0 -4 8 3 18 13 15 12 16 -3 4 -12 -10 -22 -11 -37 -3 -14 8 -22 8
-27 -1 -5 -7 -3 -8 6 -3 8 5 11 3 8 -6 -3 -8 -11 -13 -18 -11 -11 2 -11 0 -1
-12 7 -9 8 -16 2 -20 -5 -4 -8 -17 -5 -31 2 -13 0 -26 -5 -29 -4 -3 -7 6 -5
19 1 14 -1 27 -5 29 -4 3 -8 -5 -8 -17 -1 -12 -7 -23 -13 -25 -5 -2 -7 -9 -3
-15 4 -7 -1 -6 -10 2 -9 7 -14 18 -10 24 3 6 1 7 -6 3 -6 -4 -8 -12 -5 -18 5
-7 -2 -9 -22 -4 -27 7 -28 6 -9 -7 10 -8 25 -13 31 -10 7 2 14 0 17 -4 7 -11
-33 -11 -49 -1 -15 10 -24 0 -17 -18 4 -10 0 -13 -13 -8 -15 5 -16 4 -4 -4 10
-8 18 -8 27 0 10 8 12 7 7 -6 -3 -9 -15 -16 -25 -16 -10 0 -19 -5 -19 -11 0
-5 -4 -8 -9 -4 -6 3 -15 -5 -21 -17 -11 -22 -10 -22 4 -4 13 16 16 17 16 4 0
-17 -26 -31 -41 -22 -6 4 -6 10 0 18 8 9 7 13 -4 13 -8 0 -12 -4 -10 -8 3 -3
-2 -12 -10 -19 -14 -11 -14 -15 2 -33 18 -19 17 -20 -4 -8 -32 16 -41 14 -15
-5 18 -13 21 -19 11 -30 -13 -16 -44 -19 -34 -4 3 6 1 10 -4 10 -6 0 -11 -5
-11 -11 0 -5 -4 -7 -10 -4 -6 3 -7 -1 -4 -9 3 -9 2 -16 -4 -16 -6 0 -13 6 -15
13 -3 7 -6 5 -6 -5 -1 -10 5 -18 12 -18 8 0 7 -4 -3 -10 -8 -5 -19 -10 -25
-10 -5 0 -4 4 4 9 8 5 9 11 3 15 -9 5 -23 -15 -26 -36 -1 -3 -4 -10 -8 -14
-11 -11 -10 -34 2 -34 5 0 7 6 4 14 -5 14 10 29 34 32 10 2 10 -1 1 -12 -6 -7
-16 -11 -21 -8 -5 3 -8 -2 -6 -12 2 -12 -4 -20 -17 -22 -11 -2 -28 -11 -39
-21 -10 -9 -20 -15 -22 -13 -16 9 -25 -1 -20 -23 6 -25 -7 -34 -20 -13 -5 7
-3 8 6 3 9 -5 11 -4 6 4 -11 17 -26 3 -19 -17 3 -9 3 -14 -2 -10 -4 4 -14 3
-21 -3 -10 -8 -11 -17 -3 -33 l10 -21 -18 21 c-10 11 -25 18 -32 16 -10 -3
-11 0 -5 9 7 12 5 12 -9 0 -14 -11 -15 -16 -5 -29 11 -13 11 -14 0 -8 -11 7
-13 -13 -11 -102 2 -92 5 -109 17 -104 11 4 13 1 7 -9 -8 -12 -6 -12 8 0 9 7
18 11 18 7 1 -3 2 -10 3 -15 0 -5 4 -13 8 -17 4 -3 6 3 3 15 -2 14 1 21 11 21
11 0 14 -7 10 -22 -3 -13 -3 -17 0 -10 7 14 30 16 39 2 4 -6 -1 -7 -11 -3 -11
4 -15 3 -11 -4 4 -6 1 -14 -5 -16 -10 -4 -10 -6 -1 -6 7 -1 10 -8 7 -18 -5
-15 -4 -15 4 -3 6 8 9 17 6 21 -6 10 24 5 33 -6 4 -4 2 -5 -5 -1 -10 6 -17 -7
-9 -17 1 -2 -4 -11 -11 -20 -9 -10 -10 -17 -2 -22 6 -4 9 -1 8 6 -2 6 11 15
27 20 26 7 28 6 13 -5 -25 -19 -22 -24 12 -20 21 3 30 -1 30 -11 0 -9 6 -12
17 -8 15 6 16 5 3 -9 -12 -13 -18 -14 -30 -5 -9 7 -6 2 7 -10 24 -23 32 -50
11 -37 -7 4 -8 3 -4 -5 4 -6 11 -9 16 -6 4 3 11 -1 13 -7 4 -10 6 -10 6 0 1 9
6 10 20 3 10 -6 22 -7 26 -3 4 4 4 -4 1 -18 -6 -19 -5 -21 3 -10 8 12 11 12
11 1 0 -7 6 -11 14 -8 8 3 19 0 26 -7 8 -10 7 -15 -4 -19 -11 -4 -13 -1 -9 11
6 14 5 15 -9 2 -14 -13 -14 -16 -2 -23 8 -5 12 -12 9 -18 -4 -5 -1 -9 5 -9 6
0 8 -5 4 -12 -4 -7 -3 -8 4 -4 9 5 9 13 1 29 -9 20 -9 20 4 5 8 -10 17 -15 21
-11 4 4 4 -1 0 -10 -3 -10 -3 -17 2 -16 22 4 34 -2 35 -18 0 -13 2 -14 6 -4 3
8 -2 20 -12 27 -16 12 -16 13 3 11 11 0 18 -5 15 -11 -4 -6 1 -6 13 -2 15 6
17 5 7 -5 -18 -18 -16 -29 5 -23 9 3 6 -1 -7 -9 -15 -9 -20 -17 -12 -21 6 -4
11 -2 11 3 0 6 8 11 18 11 13 0 14 -2 3 -9 -8 -5 -11 -17 -7 -28 8 -25 63 -27
58 -3 -2 8 0 12 4 7 4 -4 9 -17 11 -28 2 -12 10 -30 18 -41 11 -16 12 -26 3
-42 -10 -19 -10 -20 6 -7 9 8 14 21 11 29 -3 8 8 0 25 -18 18 -19 34 -29 42
-24 7 4 10 3 5 -1 -12 -14 -49 -17 -41 -3 4 7 3 8 -5 4 -20 -13 -1 -26 31 -21
27 5 30 3 25 -14 -3 -11 0 -19 5 -18 6 1 13 -4 16 -12 3 -8 0 -11 -7 -7 -7 5
-9 1 -5 -8 3 -9 14 -16 23 -16 14 0 14 2 1 10 -8 5 -10 10 -5 10 14 0 35 -21
35 -34 0 -6 -4 -5 -9 2 -6 10 -10 10 -21 -3 -11 -13 -10 -14 5 -9 12 5 16 4
12 -3 -4 -6 3 -10 16 -9 13 1 21 -4 19 -12 -1 -6 1 -11 5 -11 22 4 35 -3 30
-14 -4 -10 2 -13 21 -10 27 3 27 3 4 -7 -26 -11 -25 -37 2 -32 9 2 16 -2 16
-8 0 -5 -5 -10 -12 -10 -6 0 -8 -3 -5 -6 4 -4 12 -2 19 3 18 14 50 24 44 14
-3 -4 5 -13 19 -19 17 -8 22 -16 18 -31 -3 -12 -10 -18 -17 -14 -6 3 -3 -3 7
-14 9 -11 15 -23 12 -26 -3 -4 1 -3 7 3 17 14 35 13 20 -2 -17 -17 -15 -28 6
-28 14 0 15 2 2 10 -13 9 -13 10 0 10 8 0 22 -4 30 -10 9 -6 17 -5 22 3 6 9 8
9 8 -1 0 -7 4 -10 10 -7 16 10 11 -1 -7 -16 -9 -8 -14 -9 -11 -4 4 6 -2 11
-13 11 -19 0 -18 -1 3 -18 13 -10 26 -18 30 -18 8 0 5 -21 -6 -39 -6 -10 -5
-12 2 -7 7 4 12 1 12 -6 0 -10 2 -10 8 -1 5 7 23 11 46 9 35 -4 64 -16 36 -16
-10 0 -10 -3 0 -15 7 -8 16 -12 21 -9 5 3 9 0 9 -5 0 -6 -5 -11 -11 -11 -5 0
-7 -5 -3 -12 5 -7 2 -9 -9 -5 -11 4 -14 2 -10 -8 4 -11 10 -12 24 -4 15 7 19
7 17 -3 -2 -7 3 -12 9 -11 7 2 24 -15 38 -37 14 -22 30 -40 36 -40 6 0 8 -9 4
-22 -7 -21 -6 -22 6 -5 13 16 14 15 15 -8 1 -15 -2 -22 -9 -18 -6 3 -7 1 -3
-5 4 -6 14 -8 23 -5 11 4 14 3 9 -5 -5 -8 -2 -10 9 -6 14 6 14 8 -2 20 -15 10
-16 15 -5 26 11 11 12 10 6 -6 -5 -13 -4 -17 4 -12 7 4 12 2 12 -5 0 -9 3 -9
14 0 11 9 16 9 22 0 4 -7 3 -9 -4 -5 -15 9 -26 -12 -13 -28 6 -7 8 -16 4 -20
-4 -4 0 -4 10 0 9 3 17 10 17 16 0 5 -4 7 -9 3 -5 -3 -13 0 -17 7 -4 7 -4 10
1 6 4 -4 13 -3 20 2 8 7 11 1 11 -20 0 -16 -3 -27 -8 -24 -4 3 -8 -4 -8 -16 0
-13 -4 -19 -12 -14 -7 4 -8 3 -4 -4 4 -6 14 -8 23 -5 11 4 14 3 9 -5 -5 -9 35
-12 159 -12 163 0 166 0 155 20 -6 11 -8 20 -4 20 3 0 0 8 -7 18 -11 15 -11
15 1 4 8 -7 15 -18 15 -24 0 -6 6 -12 13 -14 7 -1 8 0 2 3 -7 3 -7 10 2 21 10
12 10 14 1 8 -13 -7 -17 4 -14 33 2 8 -2 10 -10 5 -7 -4 -10 -3 -6 3 4 6 19 8
34 6 27 -5 28 -5 8 12 -11 9 -14 13 -7 10 7 -4 23 1 35 12 l22 18 -19 -22
c-12 -14 -14 -23 -7 -23 7 0 9 -5 5 -12 -4 -6 4 -3 18 8 14 10 24 21 22 23 -2
2 -12 -2 -21 -10 -10 -7 -3 2 15 21 18 18 31 39 28 47 -3 7 -1 13 5 13 6 0 7
5 4 10 -4 6 -11 7 -17 4 -7 -4 -8 -2 -4 5 4 6 11 9 16 6 4 -3 10 -2 13 2 2 5
2 2 1 -4 -2 -7 1 -13 6 -13 6 0 10 6 10 13 0 8 3 7 10 -3 8 -13 11 -13 22 -1
11 12 10 13 -2 7 -8 -4 -6 0 5 8 11 9 25 14 31 12 13 -5 13 12 0 33 -7 11 -4
13 12 9 15 -4 19 -2 15 8 -3 8 -9 11 -15 8 -5 -3 -4 3 4 15 15 25 21 26 38 6
7 -8 18 -15 24 -15 6 0 4 5 -4 10 -13 8 -13 10 1 10 24 0 49 42 38 62 -6 11
-5 19 2 24 8 4 7 9 -2 16 -11 8 -10 9 3 5 19 -7 42 15 30 29 -4 4 1 2 11 -5
19 -15 23 -26 5 -15 -7 4 -8 3 -4 -5 12 -18 28 -2 20 21 -5 18 -4 19 9 7 11
-10 12 -19 5 -34 -9 -20 -9 -20 6 -1 19 24 21 50 4 40 -8 -5 -8 -1 1 10 8 10
23 15 33 13 10 -3 21 -1 24 4 3 5 0 8 -8 7 -7 -2 -12 4 -10 14 2 10 -3 16 -10
14 -7 -1 -10 -1 -5 1 4 3 4 10 0 16 -3 7 4 3 16 -7 20 -18 21 -18 15 -2 -6 16
-4 17 14 7 23 -12 39 0 26 21 -4 7 -3 8 4 4 16 -10 15 6 0 24 -7 8 -9 11 -4 7
10 -8 38 12 31 22 -2 4 2 8 10 8 8 0 12 -4 9 -9 -3 -4 0 -8 5 -8 6 0 11 5 11
11 0 5 5 7 10 4 16 -10 11 1 -7 16 -11 9 -14 10 -9 2 5 -9 2 -11 -10 -6 -11 4
-13 8 -6 11 7 2 9 9 5 15 -4 8 -1 7 9 -1 27 -22 57 -23 68 -1 6 11 16 17 23
13 7 -4 9 -3 4 1 -4 5 3 20 15 34 13 14 15 19 6 12 -15 -12 -18 -11 -18 3 0
10 8 16 23 16 12 0 17 4 11 8 -6 4 -14 16 -18 27 -7 18 -5 18 14 -2 24 -27 38
-29 46 -8 4 8 14 15 23 16 10 0 11 2 4 6 -16 6 -17 29 -1 39 6 4 8 3 5 -3 -4
-6 1 -17 11 -24 14 -11 15 -11 5 1 -10 11 -9 16 5 27 9 8 11 12 5 8 -22 -10
-36 5 -21 22 7 9 11 18 8 21 -3 3 3 6 13 8 9 1 14 -2 11 -7 -3 -6 7 -7 26 -4
23 4 29 2 24 -6 -4 -8 -3 -9 4 -5 6 4 9 13 5 22 -4 12 -8 12 -21 2 -12 -10
-14 -10 -8 -1 4 8 2 13 -6 13 -11 0 -11 2 0 9 8 4 24 7 38 5 13 -1 22 2 19 6
-3 5 2 13 11 18 15 8 15 10 0 15 -10 4 -15 3 -13 -1 3 -4 -1 -13 -9 -20 -21
-19 -17 2 6 30 10 14 16 28 13 32 -3 3 -1 6 6 6 7 0 9 5 5 12 -4 7 -3 8 5 4 9
-6 9 -13 -3 -30 -12 -19 -12 -23 -1 -23 8 0 12 3 10 7 -3 4 4 15 14 24 14 13
21 14 27 5 4 -7 3 -10 -3 -6 -11 7 -28 -22 -18 -31 3 -3 5 0 5 6 0 7 7 12 16
12 11 0 14 6 9 20 -7 21 10 28 18 8 4 -8 6 -7 6 4 1 9 7 19 14 22 6 3 2 3 -10
0 -21 -5 -21 -3 -14 35 1 2 8 -2 16 -9 11 -9 15 -9 15 -1 0 7 5 9 12 5 7 -4 8
-3 4 5 -4 6 -11 9 -16 6 -5 -3 -12 0 -16 7 -4 7 -3 9 1 5 5 -4 15 3 23 15 7
13 11 15 8 6 -3 -10 0 -20 6 -24 7 -5 8 -2 3 6 -6 10 -4 12 10 6 15 -5 16 -4
5 9 -11 13 -10 14 5 9 13 -5 16 -4 10 5 -6 11 -3 11 16 1 13 -7 21 -9 17 -5
-4 4 -1 17 7 28 11 16 12 24 2 36 -10 12 -9 14 11 9 14 -4 20 -2 15 5 -4 6 0
8 11 4 12 -5 19 0 26 18 10 26 43 48 55 37 5 -4 5 -1 1 6 -4 7 -11 10 -15 8
-4 -3 -8 1 -8 9 0 8 5 11 10 8 7 -4 8 1 3 12 -6 16 -4 16 11 4 11 -9 14 -10 9
-1 -4 7 -1 15 8 18 9 3 13 10 10 15 -3 5 0 9 5 9 14 0 14 -13 0 -27 -9 -9 -7
-11 7 -8 11 1 18 9 16 16 -2 9 3 7 16 -4 19 -18 20 -16 20 107 0 97 -3 126
-14 130 -7 3 -16 0 -20 -6 -5 -7 -2 -8 5 -3 10 6 11 3 2 -14 -14 -25 -23 -28
-14 -4 4 10 2 14 -5 9 -6 -3 -14 -1 -18 5 -4 7 -3 9 4 5 12 -7 10 20 -3 31 -4
4 -5 2 -1 -4 4 -8 1 -13 -8 -13 -10 0 -13 -6 -10 -17 5 -14 4 -15 -4 -4 -6 8
-8 21 -4 29 4 11 0 14 -16 10 -16 -5 -20 -2 -17 13 2 10 -1 21 -6 25 -6 4 -6
11 2 20 6 8 9 17 5 21 -3 3 -6 1 -6 -5 0 -7 -5 -12 -11 -12 -6 0 -9 7 -6 15 4
8 2 17 -4 20 -5 4 -9 3 -8 -2 3 -19 -2 -34 -10 -29 -5 4 -12 0 -14 -6 -4 -9
-6 -10 -6 -1 -1 6 4 15 9 18 19 12 10 22 -17 21 -28 0 -30 3 -17 39 7 20 7 20
-9 0 -8 -11 -19 -17 -23 -12 -4 4 -2 7 4 7 7 0 12 7 12 15 0 8 5 15 12 15 6 0
8 3 4 7 -4 5 -14 -1 -22 -11 -8 -11 -14 -14 -14 -8 0 7 9 21 20 32 28 28 15
25 -28 -7 l-37 -27 23 26 24 26 -34 -1 c-18 -1 -33 -7 -33 -14 0 -6 -3 -14 -7
-18 -9 -9 -4 17 6 34 5 8 4 16 -3 21 -7 4 -11 11 -10 16 4 21 -2 35 -12 28 -8
-4 -7 -9 2 -15 8 -5 10 -9 4 -9 -5 0 -17 5 -25 10 -10 6 -11 10 -2 10 6 0 12
5 12 10 0 14 -27 12 -34 -2 -3 -7 -3 3 0 22 3 22 1 30 -4 22 -5 -8 -18 -12
-28 -10 -12 2 -18 -2 -16 -10 1 -8 -2 -11 -7 -8 -6 4 -4 17 4 33 9 17 11 31 5
38 -6 7 -7 15 -3 18 3 4 -1 7 -10 7 -8 0 -19 9 -22 21 -5 16 -10 18 -21 8 -8
-6 -14 -8 -14 -3 0 4 -7 -1 -16 -12 -14 -18 -15 -18 -4 4 6 13 16 20 23 16 7
-4 1 5 -12 19 -13 15 -28 24 -32 21 -9 -5 -12 9 -12 49 0 9 -4 17 -8 17 -5 0
-7 -15 -4 -32 4 -23 2 -29 -4 -18 -5 8 -7 18 -5 22 3 4 0 8 -6 8 -6 0 -8 5 -5
10 9 14 -8 12 -24 -2 -11 -10 -13 -10 -7 0 4 6 2 12 -3 12 -6 0 -10 3 -10 8 3
19 -2 30 -18 36 -16 6 -16 6 0 -12 15 -17 15 -20 1 -38 -15 -18 -15 -18 -5 2
8 16 7 25 -3 33 -7 6 -17 7 -21 3 -5 -4 -5 -1 0 7 5 9 0 20 -16 33 -20 16 -21
18 -3 9 12 -6 25 -7 29 -3 5 4 5 1 1 -5 -4 -7 -2 -13 4 -13 7 0 10 5 8 11 -2
6 -6 9 -9 7 -12 -6 -37 24 -34 41 2 10 -3 18 -11 18 -10 0 -11 -4 -3 -13 7 -8
7 -14 0 -19 -12 -7 -42 7 -60 29 -8 9 -17 13 -22 10 -5 -3 -6 2 -2 11 5 13 7
14 14 3 7 -10 9 -11 9 0 0 7 5 10 12 6 7 -4 8 -3 4 5 -4 6 -12 9 -17 6 -5 -4
-9 0 -9 7 0 7 -4 19 -9 27 -8 13 -12 13 -27 0 -15 -13 -16 -12 -9 11 7 23 7
24 -10 10 -17 -14 -18 -13 -12 3 6 15 4 16 -14 6 -20 -10 -20 -11 -2 -25 17
-14 16 -14 -5 -4 -17 9 -21 15 -13 24 13 15 11 66 -2 66 -5 0 -6 -8 -3 -17 3
-10 1 -25 -5 -33 -8 -12 -9 -10 -4 8 4 12 2 22 -4 22 -7 0 -7 8 0 26 5 15 8
29 5 31 -2 3 -7 -5 -11 -16 -3 -12 -11 -18 -17 -15 -6 4 -5 9 3 15 7 4 10 11
6 15 -3 4 -14 1 -24 -7 -14 -12 -16 -12 -8 0 6 11 4 13 -10 8 -13 -6 -16 -3
-13 11 3 11 0 19 -7 19 -7 0 -11 -7 -8 -16 4 -14 3 -14 -5 -1 -7 9 -8 18 -1
26 7 8 6 15 -2 20 -8 4 -9 3 -5 -4 4 -7 2 -12 -3 -12 -6 0 -11 9 -11 21 0 13
4 18 12 13 6 -4 8 -3 5 4 -4 5 -16 8 -27 5 -12 -3 -20 0 -20 6 0 7 4 10 9 6 5
-3 12 -1 16 5 4 6 11 7 17 4 7 -4 8 -2 4 5 -6 9 -11 9 -21 1 -10 -8 -14 -7
-18 2 -4 10 -7 10 -18 -1 -12 -12 -12 -13 1 -6 12 7 13 6 3 -7 -7 -8 -9 -19
-5 -23 4 -5 2 -5 -5 -1 -6 3 -10 20 -8 36 3 25 2 28 -9 17 -8 -6 -12 -15 -10
-18 2 -3 -3 -6 -11 -6 -20 0 -19 7 3 24 16 14 16 14 0 9 -10 -3 -18 -1 -18 5
0 6 -4 8 -9 4 -6 -3 -8 4 -6 16 3 13 10 26 17 31 10 6 9 8 -3 8 -9 0 -22 7
-29 15 -7 9 -15 13 -18 11 -2 -3 -14 0 -26 6 -20 11 -20 10 -6 -7 8 -10 10
-16 3 -12 -6 4 -14 1 -17 -5 -4 -9 -5 -8 -5 2 2 30 -1 41 -11 35 -6 -4 -9 -1
-8 7 2 7 -2 12 -8 11 -6 -1 -11 4 -11 12 0 8 4 12 9 9 4 -3 8 2 8 11 0 9 -4
13 -10 10 -16 -10 -11 7 6 19 13 10 13 12 -5 12 -11 0 -18 -3 -15 -7 2 -4 -3
-12 -10 -18 -12 -10 -13 -9 -9 7 3 12 -2 22 -13 26 -15 6 -15 4 -3 -11 12 -16
12 -17 -2 -6 -12 10 -18 10 -29 0 -12 -10 -12 -9 -1 6 11 13 11 20 1 32 -7 8
-16 13 -19 10 -4 -2 -8 2 -8 10 0 9 7 14 15 13 8 -2 17 3 19 10 5 14 -23 12
-47 -3 -13 -8 -13 -7 -1 8 7 9 17 14 22 11 5 -3 9 0 9 6 0 7 -53 10 -170 10
-167 -2 -171 -2 -164 -22z m344 -62 c0 -3 -4 -8 -10 -11 -5 -3 -10 -1 -10 4 0
6 5 11 10 11 6 0 10 -2 10 -4z m26 -48 c4 -7 4 -10 -1 -6 -4 4 -15 2 -24 -5
-14 -11 -14 -10 -2 6 16 20 18 21 27 5z m164 -122 c0 -6 -5 -4 -10 4 -9 13
-10 13 -10 0 0 -13 -2 -13 -9 0 -6 8 -7 18 -4 23 6 10 33 -11 33 -27z m-840
-106 c0 -5 -5 -10 -11 -10 -5 0 -7 5 -4 10 3 6 8 10 11 10 2 0 4 -4 4 -10z
m-89 -105 c5 4 6 -1 2 -10 -5 -13 -7 -14 -14 -3 -5 7 -8 18 -8 23 0 6 3 4 6
-3 2 -6 9 -10 14 -7z m-50 -62 c-12 -20 -14 -14 -5 12 4 9 9 14 11 11 3 -2 0
-13 -6 -23z m1319 -63 c0 -5 -4 -10 -10 -10 -5 0 -10 5 -10 10 0 6 5 10 10 10
6 0 10 -4 10 -10z m-1406 -46 c3 -8 2 -12 -4 -9 -6 3 -10 10 -10 16 0 14 7 11
14 -7z m1536 -130 c0 -8 -19 -13 -24 -6 -3 5 1 9 9 9 8 0 15 -2 15 -3z m-1722
-39 c-3 -3 -9 2 -12 12 -6 14 -5 15 5 6 7 -7 10 -15 7 -18z m1859 -60 c7 -7 6
-15 -4 -23 -11 -11 -14 -10 -20 5 -4 10 -11 21 -17 25 -6 4 -1 6 10 6 11 -1
25 -7 31 -13z m87 -94 c-2 -2 -12 5 -22 17 -11 12 -22 18 -26 15 -4 -4 -4 0
-1 9 6 15 10 13 30 -10 13 -15 21 -29 19 -31z m-2122 -20 c-8 -4 -13 -11 -12
-15 1 -4 -1 -12 -4 -19 -3 -9 -1 26 3 41 1 1 7 2 14 2 9 0 9 -2 -1 -9z m-82
-41 c0 -5 -5 -10 -11 -10 -5 0 -7 5 -4 10 3 6 8 10 11 10 2 0 4 -4 4 -10z
m-50 -95 c11 -13 10 -14 -4 -9 -9 3 -16 10 -16 15 0 13 6 11 20 -6z m2493
-110 c-3 -9 -8 -14 -10 -11 -3 3 -2 9 2 15 9 16 15 13 8 -4z m-2693 -105 c0
-7 -13 -7 -38 -1 -2 1 -1 5 3 11 6 10 35 2 35 -10z m-65 -19 c3 -5 2 -12 -3
-15 -5 -3 -9 1 -9 9 0 17 3 19 12 6z m16 -198 c2 1 3 0 1 -2 -7 -11 -31 -8
-36 5 -4 11 -1 12 13 5 10 -6 20 -9 22 -8z m2849 -3 c0 -5 -5 -10 -11 -10 -5
0 -7 5 -4 10 3 6 8 10 11 10 2 0 4 -4 4 -10z m-2719 -123 c-10 -9 -11 -8 -5 6
3 10 9 15 12 12 3 -3 0 -11 -7 -18z m2646 8 c0 -8 -4 -12 -9 -9 -5 3 -6 10 -3
15 9 13 12 11 12 -6z m-27 -10 c0 -2 -9 -3 -19 -2 -11 0 -18 5 -15 9 4 6 34 0
34 -7z m-30 -55 c-6 -11 -16 -17 -22 -14 -7 5 -5 12 7 21 25 18 28 17 15 -7z
m-2530 6 c0 -3 -4 -8 -10 -11 -5 -3 -10 -1 -10 4 0 6 5 11 10 11 6 0 10 -2 10
-4z m3 -31 c-3 -9 -8 -14 -10 -11 -3 3 -2 9 2 15 9 16 15 13 8 -4z m37 -15 c0
-5 -7 -7 -15 -4 -8 4 -15 8 -15 10 0 2 7 4 15 4 8 0 15 -4 15 -10z m40 -20 c0
-5 -4 -10 -10 -10 -5 0 -10 5 -10 10 0 6 5 10 10 10 6 0 10 -4 10 -10z m237
-234 c0 -8 -6 -12 -15 -9 -11 5 -11 7 0 14 7 5 13 9 14 9 0 0 1 -6 1 -14z
m1846 -83 c-3 -7 -10 -13 -16 -13 -8 0 -8 3 0 11 6 6 9 19 6 28 -4 13 -3 13 5
2 6 -8 8 -20 5 -28z m-1728 -33 c-3 -5 -12 -10 -18 -10 -7 0 -6 4 3 10 19 12
23 12 15 0z m1632 -56 c-14 -12 -23 -24 -20 -27 2 -3 -2 -4 -11 -3 -9 1 -22 8
-29 16 -10 12 -9 12 3 3 11 -9 20 -8 34 3 11 8 16 14 12 14 -5 0 -3 7 4 15 7
8 17 12 23 8 6 -4 0 -15 -16 -29z m-1565 -28 c7 5 8 2 3 -6 -5 -8 -3 -11 6 -8
8 3 13 11 11 17 -1 7 3 9 9 6 8 -5 6 -12 -5 -23 -14 -14 -17 -14 -34 1 -10 9
-22 14 -26 10 -4 -4 -4 1 0 11 6 16 8 17 16 2 5 -9 14 -13 20 -10z m72 -85 c3
-5 -5 -8 -19 -7 -14 0 -25 4 -25 9 0 10 38 9 44 -2z m1347 -18 c13 -16 12 -17
-3 -4 -17 13 -22 21 -14 21 2 0 10 -8 17 -17z m-1241 -78 c0 -7 -30 -13 -34
-7 -3 4 4 9 15 9 10 1 19 0 19 -2z m92 -127 c-8 -8 -9 -4 -5 13 4 13 8 18 11
10 2 -7 -1 -18 -6 -23z m973 23 c3 -5 1 -12 -5 -16 -5 -3 -10 1 -10 9 0 18 6
21 15 7z m-15 -35 c0 -2 -9 -6 -20 -9 -11 -3 -18 -1 -14 4 5 9 34 13 34 5z
m-767 -134 c-3 -12 3 -22 19 -29 13 -7 18 -12 12 -12 -21 -2 -47 26 -41 43 9
22 16 20 10 -2z m154 -178 c-3 -3 -12 -4 -19 -1 -8 3 -5 6 6 6 11 1 17 -2 13
-5z"/>
<path d="M1266 2838 c3 -5 10 -6 15 -3 13 9 11 12 -6 12 -8 0 -12 -4 -9 -9z"/>
<path d="M1795 2790 c-4 -6 -12 -7 -18 -3 -7 4 -6 0 2 -10 7 -9 19 -17 25 -16
6 0 6 3 -2 6 -10 4 -10 8 -1 19 6 8 9 14 6 14 -3 0 -9 -5 -12 -10z"/>
<path d="M1110 2726 c0 -2 9 -6 20 -9 11 -3 18 -1 14 4 -5 9 -34 13 -34 5z"/>
<path d="M1885 2681 c-6 -11 13 -26 22 -17 4 3 0 6 -8 6 -11 0 -11 2 1 10 9 6
10 10 3 10 -6 0 -14 -4 -18 -9z"/>
<path d="M1090 2639 c0 -5 5 -7 10 -4 6 3 10 8 10 11 0 2 -4 4 -10 4 -5 0 -10
-5 -10 -11z"/>
<path d="M965 2521 c-3 -5 -2 -12 3 -15 5 -3 9 1 9 9 0 17 -3 19 -12 6z"/>
<path d="M875 2490 c-3 -5 -1 -10 4 -10 6 0 11 5 11 10 0 6 -2 10 -4 10 -3 0
-8 -4 -11 -10z"/>
<path d="M767 2359 c7 -7 15 -10 18 -7 3 3 -2 9 -12 12 -14 6 -15 5 -6 -5z"/>
<path d="M2236 2308 c3 -4 15 -13 27 -18 20 -10 21 -10 4 3 -14 11 -15 16 -5
20 7 3 3 4 -9 4 -12 -1 -19 -5 -17 -9z"/>
<path d="M746 2298 c3 -5 10 -6 15 -3 13 9 11 12 -6 12 -8 0 -12 -4 -9 -9z"/>
<path d="M658 2268 c-7 -17 15 -19 29 -3 4 4 3 5 -4 2 -6 -4 -13 -2 -15 5 -3
8 -6 6 -10 -4z"/>
<path d="M650 2236 c0 -2 7 -7 16 -10 8 -3 12 -2 9 4 -6 10 -25 14 -25 6z"/>
<path d="M547 2139 c7 -7 15 -10 18 -7 3 3 -2 9 -12 12 -14 6 -15 5 -6 -5z"/>
<path d="M2555 2069 c-4 -6 -5 -12 -2 -15 2 -3 7 2 10 11 7 17 1 20 -8 4z"/>
<path d="M2630 1952 c0 -5 7 -13 16 -16 22 -8 24 -8 24 6 0 6 -3 8 -7 5 -3 -4
-12 -2 -20 4 -8 7 -13 8 -13 1z"/>
<path d="M2690 1891 c0 -6 4 -13 10 -16 6 -3 7 1 4 9 -7 18 -14 21 -14 7z"/>
<path d="M317 1875 c3 -8 9 -12 14 -9 12 7 11 11 -5 17 -10 4 -13 1 -9 -8z"/>
<path d="M2785 1760 c-3 -6 1 -7 9 -4 18 7 21 14 7 14 -6 0 -13 -4 -16 -10z"/>
<path d="M159 1741 c7 -5 9 -11 4 -14 -5 -3 -15 -2 -23 4 -22 13 -33 11 -18
-4 16 -18 35 -17 53 3 13 14 12 16 -8 17 -15 2 -18 0 -8 -6z"/>
<path d="M2880 1685 c5 -7 6 -16 2 -21 -4 -5 -3 -5 2 -1 15 12 15 34 0 34 -9
0 -11 -4 -4 -12z"/>
<path d="M2865 1301 c-6 -11 13 -26 22 -17 4 3 1 6 -6 6 -7 0 -9 5 -6 10 3 6
4 10 1 10 -3 0 -7 -4 -11 -9z"/>
<path d="M2463 943 c4 -3 1 -13 -6 -22 -10 -14 -10 -14 4 -4 9 7 20 9 25 5 4
-4 2 1 -5 11 -7 9 -16 17 -19 17 -3 0 -2 -3 1 -7z"/>
<path d="M567 856 c-4 -10 -1 -13 8 -9 8 3 12 9 9 14 -7 12 -11 11 -17 -5z"/>
<path d="M2214 668 c-13 -21 -12 -46 2 -41 8 3 12 10 11 16 -1 7 4 11 12 9 12
-3 12 0 1 12 -15 19 -17 19 -26 4z"/>
<path d="M848 597 c12 -7 19 -16 15 -21 -4 -4 1 -4 11 0 17 6 16 8 -5 20 -13
7 -28 13 -34 13 -5 0 0 -5 13 -12z"/>
<path d="M2016 481 c-21 -24 -6 -36 20 -16 18 15 18 15 -1 8 -18 -6 -18 -5 -6
10 19 23 8 22 -13 -2z"/>
<path d="M1041 389 c12 -7 12 -9 0 -9 -8 0 -11 -3 -8 -6 4 -4 13 -2 20 4 10 9
17 6 27 -8 8 -11 19 -20 24 -20 5 0 2 8 -7 18 -10 10 -15 21 -13 23 3 2 -9 5
-26 6 -21 0 -26 -2 -17 -8z"/>
<path d="M1110 300 c-13 -8 -12 -10 3 -10 9 0 17 5 17 10 0 12 -1 12 -20 0z"/>
<path d="M1146 292 c-3 -6 -1 -14 5 -17 15 -10 25 3 12 16 -7 7 -13 7 -17 1z"/>
<path d="M1786 203 c-6 -14 -5 -15 5 -6 7 7 10 15 7 18 -3 3 -9 -2 -12 -12z"/>
<path d="M1755 160 c-3 -6 1 -7 9 -4 18 7 21 14 7 14 -6 0 -13 -4 -16 -10z"/>
<path d="M1680 140 c-8 -5 -10 -10 -5 -10 6 0 17 5 25 10 8 5 11 10 5 10 -5 0
-17 -5 -25 -10z"/>
</g>
</svg>
